<?xml version="1.0" encoding="UTF-8"?><svg id="Layer_2" xmlns="http://www.w3.org/2000/svg" viewBox="0 0 139 61"><defs><style>.cls-1{fill:#fff;}.cls-2{fill:#44b8f3;}</style></defs><polygon class="cls-2" points="27.7 13.91 20.35 6.56 13 13.91 10.22 11.13 20.35 1 30.48 11.13 27.7 13.91"/><path class="cls-1" d="m0,16.49h14.85s0,4.19,0,4.19H4.47s0,5.08,0,5.08h8.95s0,4.22,0,4.22H4.47s0,5.22,0,5.22h10.38s0,4.22,0,4.22H0s0-22.93,0-22.93Zm18.16-1.68h4.37s0,21.35,0,21.35v3.27s-4.37,0-4.37,0V14.81Zm7.03,16.07c0-5.01,3.72-9.09,8.66-9.09,4.9,0,8.62,3.79,8.62,8.73,0,.54-.04,1.14-.11,1.43h-12.7c.43,2.4,2.25,4.11,4.9,4.11,1.72,0,3.18-.75,4.19-1.79l2.25,2.97c-1.29,1.5-3.72,2.68-6.62,2.68-5.33,0-9.2-4.08-9.2-9.05Zm4.54-1.68h8.27c-.5-2.43-2.04-3.69-4.08-3.69-2.18,0-3.68,1.5-4.19,3.69Zm31.32-6.91l-6.19,17.14h-5.65s-6.23-17.14-6.23-17.14h4.79s4.36,13.24,4.36,13.24l4.44-13.24h4.47Zm13.79,15.28c-1.25,1.47-3.01,2.36-5.22,2.36-4.54,0-8.23-3.72-8.23-9.05,0-5.19,3.47-9.09,8.23-9.09,2.25,0,4.01.82,5.22,2.22v-1.72s4.4,0,4.4,0v17.14s-4.4,0-4.4,0v-1.86Zm0-6.73c0-2.75-1.9-4.94-4.51-4.94-2.65,0-4.58,2.18-4.58,4.94s1.93,4.97,4.58,4.97c2.61,0,4.51-2.22,4.51-4.97Zm12.21,8.59h-4.37s0-17.14,0-17.14h4.37s0,1.68,0,1.68c1.07-1.4,2.72-2.18,4.83-2.18,3.97,0,6.51,2.79,6.51,7.26v10.38s-4.36,0-4.36,0v-9.73c0-2.33-1.36-3.79-3.47-3.79-2.18,0-3.51,1.47-3.51,3.79v9.73Zm22.89-13.52c-2.86,0-4.79,2.18-4.79,4.94s1.97,4.97,4.76,4.97c1.75,0,3.15-.61,4.22-1.68l2.22,3.22c-1.36,1.5-3.83,2.58-6.55,2.58-5.08,0-9.02-4.08-9.02-9.05,0-5.01,3.94-9.09,8.95-9.09,2.93,0,5.26,1,6.76,2.58l-2.5,3.11c-1.07-1.04-2.36-1.57-4.04-1.57Zm7.59,4.97c0-5.01,3.72-9.09,8.66-9.09s8.62,3.79,8.62,8.73c0,.54-.04,1.14-.11,1.43h-12.7c.43,2.4,2.25,4.11,4.9,4.11,1.72,0,3.18-.75,4.19-1.79l2.25,2.97c-1.29,1.5-3.72,2.68-6.62,2.68-5.33,0-9.2-4.08-9.2-9.05Zm4.54-1.68h8.27c-.5-2.43-2.04-3.69-4.08-3.69-2.18,0-3.68,1.5-4.19,3.69Zm-45.84,23.92h-6.32s0,6.44,0,6.44h-2.99s0-15.35,0-15.35h2.99s0,6.11,0,6.11h6.32s0-6.11,0-6.11h3.02s0,15.35,0,15.35h-3.02s0-6.44,0-6.44Zm4.92.72c0-3.35,2.49-6.08,5.8-6.08s5.77,2.54,5.77,5.84c0,.36-.02.77-.07.96h-8.5c.29,1.6,1.51,2.75,3.28,2.75,1.15,0,2.13-.5,2.8-1.2l1.51,1.99c-.86,1.01-2.49,1.8-4.43,1.8-3.57,0-6.16-2.73-6.16-6.06Zm3.04-1.13h5.53c-.34-1.63-1.37-2.47-2.73-2.47-1.46,0-2.47,1.01-2.8,2.47Zm19.01,5.61c-.84.98-2.01,1.58-3.5,1.58-3.04,0-5.51-2.49-5.51-6.06s2.32-6.08,5.51-6.08c1.51,0,2.68.55,3.5,1.49v-1.15s2.95,0,2.95,0v11.47s-2.95,0-2.95,0v-1.25Zm0-4.5c0-1.84-1.27-3.31-3.02-3.31-1.77,0-3.07,1.46-3.07,3.31s1.29,3.33,3.07,3.33c1.75,0,3.02-1.48,3.02-3.33Zm5.43-10.73h2.92s0,14.84,0,14.84v1.64s-2.92,0-2.92,0v-16.48Zm4.88,5.01h2.04s0-2.97,0-2.97h2.92s0,2.97,0,2.97h3.11s0,2.59,0,2.59h-3.09s0,4.86,0,4.86c0,1.08.46,1.6,1.32,1.6.53,0,1.05-.24,1.34-.57l1.32,2.18c-.65.62-1.72,1.15-3.14,1.15-2.32,0-3.81-1.46-3.81-4.26v-4.96s-2.01,0-2.01,0v-2.59Zm13.69,11.47h-2.92s0-16.48,0-16.48h2.92s0,6.13,0,6.13c.72-.93,1.82-1.46,3.23-1.46,2.66,0,4.36,1.87,4.36,4.86v6.95s-2.92,0-2.92,0v-6.51c0-1.56-.91-2.54-2.32-2.54s-2.35.98-2.35,2.54v6.51Zm8.76-21.68c-.09-.13-.28-.24-.5-.24-.24,0-.39.11-.39.27,0,.45,1.13.24,1.13.96,0,.36-.29.6-.74.6-.38,0-.63-.15-.76-.34l.21-.19c.14.18.33.27.56.27.28,0,.44-.12.44-.31,0-.49-1.13-.28-1.13-.97,0-.33.29-.55.71-.55.32,0,.57.14.69.31l-.2.2Zm.84-.02v1.57h-.28v-2.03h.33l.73,1.16.73-1.16h.29v2.03h-.28v-1.57l-.75,1.17-.76-1.17Z"/></svg>